<svg width="25" height="31" viewBox="0 0 25 31" fill="none" xmlns="http://www.w3.org/2000/svg">
<path d="M4.51808 15.1279C4.51808 20.9765 9.23785 25.7175 15.0604 25.7175H25V30.2559H15.0604C6.7427 30.2559 0 23.4827 0 15.1279C0 6.77317 6.7427 0.000244141 15.0604 0.000244141H25V4.53867H15.0604C9.23785 4.53867 4.51808 9.27969 4.51808 15.1279Z" fill="white"/>
<path d="M24.9998 15.7552C25 16.5317 24.9335 17.3067 24.801 18.0718C24.6666 18.8467 24.4667 19.6088 24.2032 20.3498C23.9332 21.1086 23.6019 21.8441 23.2125 22.5491C22.8106 23.2769 22.354 23.9729 21.8465 24.6313L18.9265 23.3635C19.3621 22.7991 19.7538 22.2022 20.0984 21.578C20.4322 20.9737 20.7163 20.3432 20.9476 19.6928C21.1735 19.0577 21.345 18.4046 21.4603 17.7405C21.6872 16.4264 21.6872 15.0831 21.4603 13.769C21.345 13.1048 21.1735 12.4516 20.9476 11.8165C20.7163 11.1663 20.4323 10.5361 20.0984 9.93218C19.7541 9.30827 19.3626 8.71158 18.9274 8.1473L21.8474 6.87915C22.3548 7.53771 22.8115 8.23389 23.2134 8.96167C23.6028 9.6666 23.9341 10.4021 24.2042 11.1607C24.4676 11.9018 24.6675 12.6638 24.8019 13.4387C24.9341 14.2038 25.0003 14.9788 24.9998 15.7552Z" fill="white"/>
<path d="M18.1175 17.4098C18.0214 17.9632 17.8784 18.5075 17.6902 19.0367C17.4975 19.5788 17.2609 20.1042 16.9827 20.6078C16.6956 21.1276 16.3694 21.6248 16.0069 22.095L13.086 20.8269C13.3761 20.4507 13.6372 20.053 13.867 19.6373C14.0893 19.2344 14.2786 18.8141 14.433 18.3807C14.5842 17.9568 11.4342 16.7469 11.4342 16.7469C11.3768 17.079 11.291 17.4056 11.178 17.723C11.0623 18.0482 10.9203 18.3634 10.7535 18.6655C10.7294 18.7087 10.705 18.7518 10.6803 18.7949L10.6554 18.8375C10.6329 18.8756 10.6099 18.9136 10.5868 18.9513C10.4577 19.1606 10.3179 19.363 10.1679 19.5578L7.24829 18.2896C7.27229 18.2585 7.29597 18.2273 7.31935 18.1961L7.33556 18.1737C7.34833 18.1566 7.36049 18.1388 7.37296 18.1213C7.38168 18.1092 7.3901 18.097 7.39851 18.0846L7.41877 18.0534C7.44588 18.0135 7.47238 17.973 7.49824 17.9325C7.50448 17.9225 7.51071 17.9128 7.51663 17.9013C7.53595 17.8702 7.55465 17.839 7.57304 17.8078C7.588 17.7826 7.60265 17.757 7.61699 17.7315L7.63849 17.6928C7.74982 17.4915 7.84447 17.2813 7.92148 17.0645C7.99677 16.8528 8.05391 16.6351 8.09227 16.4138C8.1679 15.9757 8.1679 15.5279 8.09227 15.0898C8.05383 14.8685 7.99669 14.6508 7.92148 14.4391C7.84435 14.2223 7.74971 14.0122 7.63849 13.8108C7.52381 13.6028 7.39337 13.4039 7.24829 13.2158L10.1679 11.9477C10.3855 12.2298 10.5812 12.5281 10.7535 12.8399C10.9202 13.1433 11.062 13.4598 11.1774 13.7861C11.2904 14.1037 11.3761 14.4304 11.4336 14.7626C11.4336 14.7626 14.5839 13.5537 14.4339 13.1298C14.2794 12.6964 14.0901 12.2761 13.868 11.8732C13.6379 11.4571 13.3765 11.0592 13.086 10.6829L16.006 9.41479C16.3685 9.88517 16.6947 10.3825 16.9818 10.9024C17.2599 11.4058 17.4965 11.9312 17.6892 12.4731C17.8775 13.0024 18.0204 13.5468 18.1165 14.1003C18.2069 14.6423 16.006 15.7543 16.006 15.7543C16.006 15.7543 18.2113 16.8682 18.1175 17.4098Z" fill="white"/>
</svg>
