<svg xmlns="http://www.w3.org/2000/svg" viewBox="0 0 78 84"><defs><style>.cls-1{fill:#1d1d1b;}</style></defs><g id="Layer_2" data-name="Layer 2"><g id="Layer_1-2" data-name="Layer 1"><path class="cls-1" d="M78,84H42A42,42,0,0,1,42,0H78V11H42a31,31,0,0,0,0,62H78Z"/><path class="cls-1" d="M66.28,69.29a3.46,3.46,0,0,1-2.12-.72,3.5,3.5,0,0,1-.66-4.9,34.59,34.59,0,0,0,7-21.75,34.1,34.1,0,0,0-7-19.29,3.5,3.5,0,1,1,5.55-4.26,40.61,40.61,0,0,1,0,49.55A3.5,3.5,0,0,1,66.28,69.29Z"/><path class="cls-1" d="M52.52,46.64h-27V35.46a3.5,3.5,0,0,1,7,0v4.18H47.73a7.86,7.86,0,0,0-.15-4.45,5.36,5.36,0,0,0-3.27-2.85,3.5,3.5,0,1,1,2.55-6.52,12.24,12.24,0,0,1,7.22,6.78c2.23,5.53-.33,11.36-.62,12Z"/><path class="cls-1" d="M45.58,60.54a3.5,3.5,0,0,1-1.27-6.76,5.37,5.37,0,0,0,3.27-2.86,7.86,7.86,0,0,0,.15-4.45H32.52v4.19a3.5,3.5,0,0,1-7,0V39.47h27l.94,2c.29.65,2.85,6.48.62,12a12.27,12.27,0,0,1-7.22,6.78A3.58,3.58,0,0,1,45.58,60.54Z"/></g></g></svg>