<svg width="16" height="16" viewBox="0 0 16 16" fill="none" xmlns="http://www.w3.org/2000/svg">
<path d="M8 1.33334C4.31999 1.33334 1.33333 4.32001 1.33333 8.00001C1.33333 11.68 4.31999 14.6667 8 14.6667C11.68 14.6667 14.6667 11.68 14.6667 8.00001C14.6667 4.32001 11.68 1.33334 8 1.33334ZM6.19333 10.86L3.79999 8.46668C3.53999 8.20668 3.53999 7.78668 3.79999 7.52668C4.05999 7.26668 4.48 7.26668 4.74 7.52668L6.66666 9.44668L11.2533 4.86001C11.5133 4.60001 11.9333 4.60001 12.1933 4.86001C12.4533 5.12001 12.4533 5.54001 12.1933 5.80001L7.13333 10.86C6.87999 11.12 6.45333 11.12 6.19333 10.86Z" fill="#265CB3"/>
</svg>
