<svg width="21" height="25" viewBox="0 0 21 25" fill="none" xmlns="http://www.w3.org/2000/svg">
<path d="M3.69668 12.4999C3.69668 17.3325 7.55831 21.2499 12.3222 21.2499H20.4546V25H12.3222C5.51682 25 6.10352e-05 19.4033 6.10352e-05 12.4999C6.10352e-05 5.59641 5.51682 0 12.3222 0H20.4546V3.75006H12.3222C7.55831 3.75006 3.69668 7.66752 3.69668 12.4999Z" fill="white"/>
<path d="M20.4545 13.0187C20.4546 13.6603 20.4002 14.3007 20.2918 14.9329C20.1819 15.5732 20.0183 16.2028 19.8027 16.8151C19.5818 17.4421 19.3107 18.0499 18.9921 18.6325C18.6633 19.2338 18.2897 19.8089 17.8745 20.353L15.4854 19.3054C15.8418 18.839 16.1623 18.3457 16.4442 17.83C16.7174 17.3307 16.9498 16.8097 17.1391 16.2723C17.3239 15.7475 17.4642 15.2079 17.5585 14.6591C17.7442 13.5733 17.7442 12.4634 17.5585 11.3775V11.3775C17.4642 10.8287 17.3239 10.289 17.1391 9.76415C16.9498 9.22693 16.7174 8.7062 16.4442 8.20717C16.1625 7.69164 15.8422 7.1986 15.4862 6.73234L17.8752 5.68448C18.2904 6.22864 18.664 6.80389 18.9929 7.40524C19.3115 7.98772 19.5826 8.59542 19.8035 9.22232C20.019 9.83462 20.1826 10.4643 20.2926 11.1046V11.1046C20.4007 11.7368 20.4548 12.3772 20.4545 13.0187V13.0187Z" fill="white"/>
<path d="M14.8234 14.3859C14.7448 14.8432 14.6279 15.2929 14.4738 15.7301C14.3162 16.1781 14.1226 16.6122 13.895 17.0283V17.0283C13.6601 17.4578 13.3932 17.8686 13.0966 18.2572V18.2572L10.7068 17.2093C10.9442 16.8985 11.1578 16.5699 11.3458 16.2264V16.2264C11.5277 15.8935 11.6826 15.5462 11.8089 15.1881C11.9326 14.8378 9.35532 13.8381 9.35532 13.8381C9.30832 14.1125 9.23819 14.3823 9.14572 14.6447C9.05103 14.9133 8.93488 15.1738 8.79841 15.4234C8.7787 15.4591 8.75872 15.4948 8.73849 15.5303L8.71809 15.5656C8.69973 15.597 8.68086 15.6284 8.66199 15.6596C8.55639 15.8325 8.442 15.9998 8.31928 16.1607L5.93048 15.1129C5.95012 15.0871 5.96949 15.0614 5.98862 15.0356L6.00188 15.0171C6.01233 15.0029 6.02228 14.9882 6.03248 14.9738C6.03962 14.9638 6.0465 14.9537 6.05339 14.9434L6.06996 14.9177C6.09215 14.8847 6.11382 14.8512 6.13499 14.8177C6.14009 14.8095 6.14519 14.8015 6.15003 14.792C6.16584 14.7662 6.18114 14.7405 6.19619 14.7147C6.20843 14.6939 6.22041 14.6728 6.23214 14.6516L6.24974 14.6197C6.34083 14.4533 6.41826 14.2797 6.48127 14.1005V14.1005C6.54288 13.9256 6.58963 13.7457 6.62101 13.5628C6.68289 13.2009 6.68289 12.8309 6.62101 12.4689C6.58956 12.286 6.54281 12.1061 6.48127 11.9312V11.9312C6.41816 11.7521 6.34073 11.5784 6.24974 11.412C6.15591 11.2401 6.04918 11.0758 5.93048 10.9204L8.31928 9.87253C8.49726 10.1057 8.65743 10.3522 8.79841 10.6098C8.9348 10.8605 9.05078 11.122 9.14521 11.3917V11.3917C9.23769 11.6541 9.30781 11.924 9.35481 12.1985C9.35481 12.1985 11.9323 11.1995 11.8097 10.8493C11.6832 10.4912 11.5284 10.1439 11.3466 9.81099C11.1584 9.46722 10.9445 9.13845 10.7068 8.82751L13.0958 7.77965C13.3925 8.16832 13.6594 8.57922 13.8942 9.0088C14.1218 9.42483 14.3154 9.85891 14.4731 10.3067C14.6271 10.7441 14.7441 11.1939 14.8227 11.6512V11.6512C14.8966 12.0991 13.0958 13.0179 13.0958 13.0179C13.0958 13.0179 14.9002 13.9383 14.8234 14.3859Z" fill="white"/>
</svg>
