<svg width="20" height="20" viewBox="0 0 20 20" fill="none" xmlns="http://www.w3.org/2000/svg">
<path d="M4.70739 9.9999C4.70739 13.866 7.7967 16.9999 11.6078 16.9999H18.1137V20H11.6078C6.16351 20 1.7501 15.5227 1.7501 9.9999C1.7501 4.47713 6.16351 0 11.6078 0H18.1137V3.00005H11.6078C7.7967 3.00005 4.70739 6.13402 4.70739 9.9999Z" fill="black" fill-opacity="0.41"/>
<path d="M18.1136 10.4147C18.1137 10.928 18.0701 11.4403 17.9834 11.946C17.8955 12.4582 17.7646 12.962 17.5922 13.4518C17.4154 13.9534 17.1985 14.4396 16.9437 14.9057C16.6806 15.3867 16.3817 15.8469 16.0496 16.2821L14.1383 15.444C14.4234 15.0709 14.6798 14.6763 14.9053 14.2637C15.1239 13.8643 15.3098 13.4475 15.4612 13.0175C15.6091 12.5977 15.7213 12.166 15.7968 11.727C15.9453 10.8584 15.9453 9.97041 15.7968 9.10174C15.7213 8.66269 15.6091 8.2309 15.4612 7.81104C15.3098 7.38126 15.1239 6.96468 14.9053 6.56546C14.68 6.15303 14.4238 5.7586 14.1389 5.38559L16.0502 4.5473C16.3823 4.98264 16.6812 5.44283 16.9443 5.92392C17.1992 6.3899 17.416 6.87606 17.5928 7.37758C17.7652 7.86741 17.8961 8.37115 17.9841 8.88336C18.0705 9.38913 18.1139 9.90145 18.1136 10.4147Z" fill="black" fill-opacity="0.41"/>
<path d="M13.6087 11.5085C13.5458 11.8743 13.4523 12.2341 13.3291 12.5839C13.203 12.9422 13.0481 13.2896 12.866 13.6224C12.6781 13.966 12.4646 14.2947 12.2273 14.6055L10.3154 13.7673C10.5053 13.5186 10.6762 13.2557 10.8266 12.9809C10.9721 12.7146 11.096 12.4368 11.1971 12.1502C11.296 11.87 9.23425 11.0703 9.23425 11.0703C9.19664 11.2898 9.14054 11.5057 9.06656 11.7155C8.99081 11.9305 8.89789 12.1388 8.78872 12.3385C8.77294 12.3671 8.75696 12.3956 8.74078 12.424L8.72446 12.4523C8.70977 12.4774 8.69468 12.5025 8.67958 12.5274C8.5951 12.6658 8.50359 12.7996 8.40541 12.9284L6.49437 12.0901C6.51008 12.0695 6.52558 12.0489 6.54088 12.0283L6.55149 12.0134C6.55986 12.0021 6.56781 11.9904 6.57597 11.9788C6.58168 11.9708 6.58719 11.9628 6.5927 11.9545L6.60596 11.9339C6.62371 11.9075 6.64105 11.8808 6.65798 11.854C6.66206 11.8474 6.66614 11.841 6.67001 11.8334C6.68266 11.8128 6.6949 11.7922 6.70694 11.7716C6.71673 11.7549 6.72632 11.738 6.7357 11.7211L6.74978 11.6955C6.82265 11.5624 6.8846 11.4235 6.935 11.2802C6.98429 11.1403 7.02169 10.9964 7.04679 10.85C7.0963 10.5605 7.0963 10.2645 7.04679 9.97488C7.02163 9.82856 6.98424 9.68466 6.935 9.54472C6.88452 9.40143 6.82257 9.26253 6.74978 9.12939C6.67472 8.99189 6.58933 8.86041 6.49437 8.7361L8.40541 7.89781C8.54779 8.08433 8.67593 8.2815 8.78872 8.48764C8.89783 8.68819 8.99061 8.89737 9.06615 9.11311C9.14014 9.32305 9.19624 9.53899 9.23384 9.75857C9.23384 9.75857 11.2958 8.95942 11.1977 8.67924C11.0966 8.39273 10.9727 8.11494 10.8273 7.84857C10.6767 7.57356 10.5056 7.31054 10.3154 7.06179L12.2267 6.2235C12.464 6.53444 12.6775 6.86316 12.8654 7.20683C13.0474 7.53965 13.2023 7.88691 13.3285 8.24516C13.4517 8.59505 13.5452 8.95489 13.6081 9.32078C13.6673 9.67904 12.2267 10.4141 12.2267 10.4141C12.2267 10.4141 13.6701 11.1504 13.6087 11.5085Z" fill="black" fill-opacity="0.41"/>
</svg>
