<svg width="91" height="91" viewBox="0 0 91 91" fill="none" xmlns="http://www.w3.org/2000/svg">
<path fill-rule="evenodd" clip-rule="evenodd" d="M72.0417 7.58334H18.9583C12.5125 7.58334 7.58333 12.5125 7.58333 18.9583V72.0417C7.58333 78.4875 12.5125 83.4167 18.9583 83.4167H72.0417C78.4875 83.4167 83.4167 78.4875 83.4167 72.0417V18.9583C83.4167 12.5125 78.4875 7.58334 72.0417 7.58334ZM15.1667 18.9583C15.1667 16.6833 16.6833 15.1667 18.9583 15.1667H72.0417C74.3167 15.1667 75.8333 16.6833 75.8333 18.9583V47.775L63.3208 35.2625C61.8042 33.7458 59.5292 33.7458 58.0125 35.2625L17.8208 75.4542C16.3042 75.075 15.1667 73.5583 15.1667 72.0417V18.9583ZM28.0583 75.8333H72.0417C74.3167 75.8333 75.8333 74.3166 75.8333 72.0416V58.3916L60.6667 43.225L28.0583 75.8333ZM32.2292 41.7083C37.5375 41.7083 41.7083 37.5375 41.7083 32.2292C41.7083 26.9208 37.5375 22.75 32.2292 22.75C26.9208 22.75 22.75 26.9208 22.75 32.2292C22.75 37.5375 26.9208 41.7083 32.2292 41.7083ZM34.125 32.2292C34.125 31.0917 33.3667 30.3333 32.2292 30.3333C31.0917 30.3333 30.3333 31.0917 30.3333 32.2292C30.3333 33.3667 31.0917 34.125 32.2292 34.125C33.3667 34.125 34.125 33.3667 34.125 32.2292Z" fill="black"/>
<mask id="mask0_16_1925" style="mask-type:alpha" maskUnits="userSpaceOnUse" x="7" y="7" width="77" height="77">
<path fill-rule="evenodd" clip-rule="evenodd" d="M72.0417 7.58334H18.9583C12.5125 7.58334 7.58333 12.5125 7.58333 18.9583V72.0417C7.58333 78.4875 12.5125 83.4167 18.9583 83.4167H72.0417C78.4875 83.4167 83.4167 78.4875 83.4167 72.0417V18.9583C83.4167 12.5125 78.4875 7.58334 72.0417 7.58334ZM15.1667 18.9583C15.1667 16.6833 16.6833 15.1667 18.9583 15.1667H72.0417C74.3167 15.1667 75.8333 16.6833 75.8333 18.9583V47.775L63.3208 35.2625C61.8042 33.7458 59.5292 33.7458 58.0125 35.2625L17.8208 75.4542C16.3042 75.075 15.1667 73.5583 15.1667 72.0417V18.9583ZM28.0583 75.8333H72.0417C74.3167 75.8333 75.8333 74.3166 75.8333 72.0416V58.3916L60.6667 43.225L28.0583 75.8333ZM32.2292 41.7083C37.5375 41.7083 41.7083 37.5375 41.7083 32.2292C41.7083 26.9208 37.5375 22.75 32.2292 22.75C26.9208 22.75 22.75 26.9208 22.75 32.2292C22.75 37.5375 26.9208 41.7083 32.2292 41.7083ZM34.125 32.2292C34.125 31.0917 33.3667 30.3333 32.2292 30.3333C31.0917 30.3333 30.3333 31.0917 30.3333 32.2292C30.3333 33.3667 31.0917 34.125 32.2292 34.125C33.3667 34.125 34.125 33.3667 34.125 32.2292Z" fill="white"/>
</mask>
<g mask="url(#mask0_16_1925)">
<path fill-rule="evenodd" clip-rule="evenodd" d="M0 0H91V91H0V0Z" fill="#333333"/>
</g>
</svg>
